<svg width="161.8" height="29" xmlns="http://www.w3.org/2000/svg">

 <g>
  <title>Layer 1</title>
  <path id="svg_2" d="m11.26,18.494l0,2.98l-6.05,0q-2.88,0 -4.05,-1q-1.16,-0.99 -1.16,-3.51l0,0l0,-12.58l11.26,0l0,2.98l-7.92,0l0,4l5.54,0l-0.24,2.98l-5.3,0l0,2.38q0,1 0.45,1.39q0.46,0.38 1.66,0.38l0,0l5.81,0zm12.45,-10.82l0,13.8l-2.09,0l-0.96,-1.66l-3.33,1.8q-2.79,0 -3.75,-2.01l0,0q-0.48,-0.99 -0.66,-2.13q-0.18,-1.14 -0.18,-2.37q0,-1.24 0.03,-1.83q0.02,-0.59 0.12,-1.37q0.09,-0.78 0.27,-1.3q0.18,-0.53 0.52,-1.1q0.34,-0.56 0.82,-0.9l0,0q1.08,-0.74 2.8,-0.74l0,0l3.29,0l3.12,-0.19zm-5.49,10.65l2.37,-1.22l0,-6.43l-2.37,0q-1.32,0 -1.84,1.01q-0.52,1 -0.52,3.01q0,2 0.5,2.82q0.49,0.81 1.86,0.81l0,0zm18.28,-0.64l0,0l0,0.36q-0.14,1.8 -1.52,2.71q-1.38,0.91 -3.44,0.91l0,0q-3.05,0 -4.28,-1.1l0,0q-1.12,-1.01 -1.12,-2.98l0,0l0,-0.29l2.83,0q0,1.11 0.57,1.51q0.58,0.41 2,0.41l0,0q1.92,0 1.92,-1.39l0,0q0,-1.15 -0.68,-1.54l0,0q-0.31,-0.19 -0.79,-0.28l0,0l-2.42,-0.41q-3.17,-0.51 -3.17,-3.96l0,0q0,-1.92 1.4,-2.99q1.41,-1.07 3.57,-1.07l0,0q4.92,0 4.92,4.25l0,0l0,0.31l-2.71,0q-0.05,-1.13 -0.6,-1.53q-0.56,-0.41 -1.55,-0.41q-1,0 -1.5,0.39q-0.51,0.4 -0.51,0.88l0,0q0,1.37 1.11,1.56l0,0l2.9,0.53q3.07,0.57 3.07,4.13zm9.34,-9.92l3.29,0l-5.21,15.24q-0.36,1.04 -0.94,1.61l0,0q-0.96,0.96 -2.68,0.96l0,0l-1.47,0l0,-2.81l0.96,0q0.67,0 1,-0.22q0.32,-0.23 0.56,-0.9l0,0l0.24,-0.68l-4.13,-13.2l3.29,0l2.45,9.53l2.64,-9.53zm18,13.71l0,-10.2l-3.07,6.48q-0.67,1.29 -1.67,1.29q-1,0 -1.67,-1.36l0,0l-3.12,-6.41l0,10.2l-3.33,0l0,-17.09l3.28,0l4.83,9.86l4.8,-9.86l3.29,0l0,17.09l-3.34,0zm16.03,-13.8l0,13.8l-2.09,0l-0.96,-1.66l-3.33,1.8q-2.79,0 -3.75,-2.01l0,0q-0.48,-0.99 -0.66,-2.13q-0.18,-1.14 -0.18,-2.37q0,-1.24 0.03,-1.83q0.02,-0.59 0.12,-1.37q0.09,-0.78 0.27,-1.3q0.18,-0.53 0.52,-1.1q0.34,-0.56 0.82,-0.9l0,0q1.08,-0.74 2.8,-0.74l0,0l3.29,0l3.12,-0.19zm-5.49,10.65l2.37,-1.22l0,-6.43l-2.37,0q-1.32,0 -1.84,1.01q-0.52,1 -0.52,3.01q0,2 0.5,2.82q0.49,0.81 1.86,0.81l0,0zm14.73,0.51l0,2.64l-1.94,0q-1.78,0 -2.7,-1.06q-0.93,-1.05 -0.93,-2.52l0,0l0,-7.2l-1.32,0l0,-2.37l1.32,0l0,-2.69l3.12,0l0,2.69l2.21,0l0,2.37l-2.21,0l0,7.01q0,1.13 1.08,1.13l0,0l1.37,0zm13.18,-6.65l0,9.29l-3.12,0l0,-8.59q0,-2.21 -1.73,-2.21l0,0l-2.98,1.17l0,9.63l-3.12,0l0,-18.05l3.12,0l0,5.98l3.96,-1.78q2.12,0 2.99,1.2q0.88,1.2 0.88,3.36l0,0zm12.48,5.5l0,0l0,0.36q-0.15,1.8 -1.53,2.71q-1.38,0.91 -3.44,0.91l0,0q-3.05,0 -4.27,-1.1l0,0q-1.13,-1.01 -1.13,-2.98l0,0l0,-0.29l2.83,0q0,1.11 0.58,1.51q0.57,0.41 1.99,0.41l0,0q1.92,0 1.92,-1.39l0,0q0,-1.15 -0.67,-1.54l0,0q-0.31,-0.19 -0.79,-0.28l0,0l-2.43,-0.41q-3.17,-0.51 -3.17,-3.96l0,0q0,-1.92 1.41,-2.99q1.4,-1.07 3.56,-1.07l0,0q4.92,0 4.92,4.25l0,0l0,0.31l-2.71,0q-0.05,-1.13 -0.6,-1.53q-0.55,-0.41 -1.55,-0.41q-0.99,0 -1.5,0.39q-0.5,0.4 -0.5,0.88l0,0q0,1.37 1.1,1.56l0,0l2.91,0.53q3.07,0.57 3.07,4.13z" fill-rule="nonzero" fill="#ffffffff"/>
  <line id="svg_3" stroke-linecap="round" stroke="#ffffffff" y2="98%" x2="123.768" y1="2%" x1="123.768"/>
  <g id="svg_1" transform="translate(132.768 0) scale(0.29 0.29)" color="#044c38" fill="#044c38">
   <svg fill="#083734" id="svg_4" viewBox="0 0 100 100" y="0" x="0" height="100" width="100">
    <g id="svg_5">
     <path id="svg_6" d="m71.62,59.237l-7.172,3.973c-4.41,2.441 -9.407,3.734 -14.45,3.734c-5.039,0 -10.035,-1.292 -14.449,-3.734l-8.796,-4.873c0.11,4.083 -0.062,8.421 -1.726,11.882c-0.459,0.945 -1.377,1.8 -1.36,2.936c0.02,1.576 1.812,1.842 3.102,1.602c0,0 7.604,-1.458 18.126,8.854c1.045,1.025 2.076,1.989 3.492,2.49c2.771,0.983 4.831,-0.715 6.735,-2.508c1.296,-1.219 2.741,-2.277 4.193,-3.306c3.486,-2.463 7.91,-5.56 12.351,-5.635c0,0 5.729,1.25 2.396,-4.062c0,0 -1.527,-4.921 -2.442,-11.353" fill="#fffffff"/>
     <polygon id="svg_7" points="14.998,55.277 13.331,65.277 13.331,78.611 19.998,78.611 19.998,65.277 18.331,55.277    18.331,46.051 14.998,44.204  " fill="#ffffffff"/>
     <path id="svg_8" d="m93.499,34.391l-32.279,-17.879c-6.986,-3.869 -15.456,-3.869 -22.438,0l-32.284,17.879c-1.998,1.108 -1.998,3.996 0,5.106l8.5,4.706l0,-7.259l38.334,0l0,3.333l-35.001,0l0,5.773l20.45,11.327c6.982,3.867 15.452,3.867 22.438,0l32.279,-17.879c2.003,-1.111 2.003,-3.998 0.001,-5.107" fill="#fffffff"/>
    </g>
   </svg>
  </g>
 </g>
</svg>